<svg width="45" height="34" viewBox="0 0 45 34" fill="none" xmlns="http://www.w3.org/2000/svg">
<path d="M22.1947 23.3677C27.2533 23.3677 31.3542 20.3636 31.3542 16.658C31.3542 12.9523 27.2533 9.9483 22.1947 9.9483C17.136 9.9483 13.0352 12.9523 13.0352 16.658C13.0352 20.3636 17.136 23.3677 22.1947 23.3677Z" stroke="black" stroke-width="2.79795" stroke-linecap="round" stroke-linejoin="round"/>
<path d="M1.58569 23.3677V9.94831C1.58569 5.31622 6.71178 1.56116 13.0351 1.56116H31.3542C37.6775 1.56116 42.8036 5.31622 42.8036 9.94831V23.3677C42.8036 27.9998 37.6775 31.7549 31.3542 31.7549H13.0351C6.71178 31.7549 1.58569 27.9998 1.58569 23.3677Z" stroke="black" stroke-width="2.79795"/>
<path d="M34.7891 7.45102L34.8118 7.4303" stroke="black" stroke-width="2.79795" stroke-linecap="round" stroke-linejoin="round"/>
</svg>
