<svg width="45" height="29" viewBox="0 0 45 29" fill="none" xmlns="http://www.w3.org/2000/svg">
<path d="M42.7733 2.01381C42.7733 2.01381 38.9922 3.65013 36.8896 4.11393C35.761 3.1634 34.2612 2.48968 32.593 2.1839C30.9248 1.87814 29.1686 1.95504 27.562 2.40425C25.9554 2.85346 24.5758 3.65328 23.61 4.69553C22.6441 5.73779 22.1385 6.9722 22.1616 8.23182V9.60445C18.8686 9.66698 15.6057 9.132 12.6633 8.04712C9.72095 6.96223 7.19053 5.36114 5.2974 3.38644C5.2974 3.38644 -2.19779 15.7402 14.6664 21.2307C10.8074 23.1495 6.21024 24.1117 1.5498 23.9759C18.414 30.8391 39.0257 23.9759 39.0257 8.19064C39.0241 7.80829 38.9738 7.42689 38.8758 7.05136C40.7882 5.66979 42.7733 2.01381 42.7733 2.01381Z" stroke="black" stroke-width="3.093" stroke-linecap="round" stroke-linejoin="round"/>
</svg>
