<svg width="45" height="34" viewBox="0 0 45 34" fill="none" xmlns="http://www.w3.org/2000/svg">
<path d="M1.58569 17.0989C1.58569 25.4378 10.8139 32.1978 22.1975 32.1978C33.5809 32.1978 42.8092 25.4378 42.8092 17.0989C42.8092 8.76001 33.5809 2 22.1975 2C10.8139 2 1.58569 8.76001 1.58569 17.0989Z" stroke="black" stroke-width="2.74316" stroke-linecap="round" stroke-linejoin="round"/>
<path d="M24.2587 2.07446C24.2587 2.07446 30.4422 8.03947 30.4422 17.0988C30.4422 26.1581 24.2587 32.1233 24.2587 32.1233" stroke="black" stroke-width="2.74316" stroke-linecap="round" stroke-linejoin="round"/>
<path d="M20.1363 32.1233C20.1363 32.1233 13.9528 26.1581 13.9528 17.0988C13.9528 8.03947 20.1363 2.07446 20.1363 2.07446" stroke="black" stroke-width="2.74316" stroke-linecap="round" stroke-linejoin="round"/>
<path d="M2.88342 22.3835H41.5114" stroke="black" stroke-width="2.74316" stroke-linecap="round" stroke-linejoin="round"/>
<path d="M2.88342 11.8143H41.5114" stroke="black" stroke-width="2.74316" stroke-linecap="round" stroke-linejoin="round"/>
</svg>
