<svg width="46" height="34" viewBox="0 0 46 34" fill="none" xmlns="http://www.w3.org/2000/svg">
<path d="M23.1975 32.1978C34.5809 32.1978 43.8092 25.4378 43.8092 17.0989C43.8092 8.76001 34.5809 2 23.1975 2C11.8139 2 2.58569 8.76001 2.58569 17.0989C2.58569 25.4378 11.8139 32.1978 23.1975 32.1978Z" stroke="black" stroke-width="3.47769" stroke-linecap="round" stroke-linejoin="round"/>
<path d="M28.0067 27.6681V24.8552C28.0583 24.3879 27.9698 23.918 27.747 23.477C27.5244 23.0359 27.1726 22.6337 26.7152 22.2972C31.0299 21.9541 35.5644 20.7877 35.5644 15.4364C35.564 14.0679 34.8261 12.7519 33.5033 11.7608C34.1297 10.5637 34.0853 9.24034 33.3796 8.06581C33.3796 8.06581 31.7581 7.72278 28.0067 9.51639C24.8573 8.90756 21.5375 8.90756 18.388 9.51639C14.6366 7.72278 13.0152 8.06581 13.0152 8.06581C12.3094 9.24034 12.2651 10.5637 12.8915 11.7608C11.5588 12.7593 10.82 14.0871 10.8303 15.4657C10.8303 20.7779 15.3649 21.9443 19.6796 22.3265C19.2276 22.6597 18.8789 23.0571 18.6563 23.4928C18.4338 23.9284 18.3423 24.3926 18.388 24.8552V27.6681" stroke="black" stroke-width="3.47769" stroke-linecap="round" stroke-linejoin="round"/>
<path d="M18.388 25.708C14.2656 26.6618 10.8303 25.708 8.76917 22.7676" stroke="black" stroke-width="3.47769" stroke-linecap="round" stroke-linejoin="round"/>
</svg>
