<svg width="45" height="25" viewBox="0 0 45 25" fill="none" xmlns="http://www.w3.org/2000/svg">
<path d="M26.2839 12.2816L19.0698 15.3013V9.26178L26.2839 12.2816Z" fill="black" stroke="black" stroke-width="2.84585" stroke-linecap="round" stroke-linejoin="round"/>
<path d="M1.5498 13.3498V11.2131C1.5498 6.84148 1.5498 4.65567 3.41618 3.24925C5.28257 1.84283 8.22093 1.78195 14.0976 1.66019C16.8823 1.6025 19.7269 1.56116 22.1616 1.56116C24.5962 1.56116 27.4409 1.6025 30.2255 1.66019C36.1021 1.78195 39.0405 1.84283 40.9069 3.24925C42.7733 4.65567 42.7733 6.84148 42.7733 11.2131V13.3498C42.7733 17.7214 42.7733 19.9073 40.9069 21.3136C39.0405 22.72 36.1023 22.7809 30.2257 22.9027C27.4409 22.9604 24.5962 23.0018 22.1616 23.0018C19.7269 23.0018 16.8822 22.9604 14.0974 22.9027C8.22082 22.7809 5.28253 22.72 3.41616 21.3136C1.5498 19.9073 1.5498 17.7214 1.5498 13.3498Z" stroke="black" stroke-width="2.84585"/>
</svg>
