<svg width="50" height="50" viewBox="0 0 50 50" fill="none" xmlns="http://www.w3.org/2000/svg">
<path d="M18.229 20.8333C18.229 19.0376 18.9424 17.3154 20.2121 16.0456C21.4819 14.7759 23.2041 14.0625 24.9998 14.0625C26.7956 14.0625 28.5178 14.7759 29.7875 16.0456C31.0573 17.3154 31.7707 19.0376 31.7707 20.8333C31.7707 22.6291 31.0573 24.3513 29.7875 25.621C28.5178 26.8908 26.7956 27.6042 24.9998 27.6042C23.2041 27.6042 21.4819 26.8908 20.2121 25.621C18.9424 24.3513 18.229 22.6291 18.229 20.8333Z" fill="black"/>
<path fill-rule="evenodd" clip-rule="evenodd" d="M7.86254 18.4937C8.20814 14.3054 10.116 10.4001 13.2073 7.55303C16.2986 4.706 20.3474 3.12541 24.55 3.125H25.45C29.6526 3.12541 33.7015 4.706 36.7928 7.55303C39.8841 10.4001 41.7919 14.3054 42.1375 18.4937C42.5236 23.1698 41.0799 27.8131 38.1105 31.4458L28.125 43.6583C27.7466 44.1216 27.2698 44.4949 26.7294 44.7512C26.1889 45.0075 25.5982 45.1405 25 45.1405C24.4019 45.1405 23.8112 45.0075 23.2707 44.7512C22.7302 44.4949 22.2535 44.1216 21.875 43.6583L11.8917 31.4458C8.92151 27.8134 7.47703 23.17 7.86254 18.4937ZM25 10.9375C22.3755 10.9375 19.8585 11.9801 18.0026 13.8359C16.1468 15.6918 15.1042 18.2088 15.1042 20.8333C15.1042 23.4579 16.1468 25.9749 18.0026 27.8307C19.8585 29.6866 22.3755 30.7292 25 30.7292C27.6246 30.7292 30.1416 29.6866 31.9974 27.8307C33.8533 25.9749 34.8959 23.4579 34.8959 20.8333C34.8959 18.2088 33.8533 15.6918 31.9974 13.8359C30.1416 11.9801 27.6246 10.9375 25 10.9375Z" fill="black"/>
</svg>
