<svg width="32" height="50" viewBox="0 0 32 50" fill="none" xmlns="http://www.w3.org/2000/svg">
<g clip-path="url(#clip0_224_43)">
<path d="M26.5625 0H4.6875C2.09961 0 0 2.09961 0 4.6875V45.3125C0 47.9004 2.09961 50 4.6875 50H26.5625C29.1504 50 31.25 47.9004 31.25 45.3125V4.6875C31.25 2.09961 29.1504 0 26.5625 0ZM15.625 46.875C13.8965 46.875 12.5 45.4785 12.5 43.75C12.5 42.0215 13.8965 40.625 15.625 40.625C17.3535 40.625 18.75 42.0215 18.75 43.75C18.75 45.4785 17.3535 46.875 15.625 46.875Z" fill="black"/>
</g>
<defs>
<clipPath id="clip0_224_43">
<rect width="31.25" height="50" fill="white"/>
</clipPath>
</defs>
</svg>
