<svg width="50" height="50" viewBox="0 0 50 50" fill="none" xmlns="http://www.w3.org/2000/svg">
<path d="M25 9.37508C25 7.99375 24.4513 6.66899 23.4745 5.69223C22.4978 4.71548 21.173 4.16675 19.7917 4.16675C18.4103 4.16675 17.0856 4.71548 16.1088 5.69223C15.1321 6.66899 14.5833 7.99375 14.5833 9.37508C13.475 9.37476 12.3865 9.66918 11.4294 10.2282C10.4724 10.7871 9.68118 11.5906 9.13694 12.5561C8.5927 13.5216 8.315 14.6145 8.3323 15.7227C8.3496 16.8309 8.66129 17.9145 9.23541 18.8626C7.80945 19.1381 6.5239 19.9015 5.59947 21.0216C4.67505 22.1418 4.16943 23.5488 4.16943 25.0011C4.16943 26.4535 4.67505 27.8605 5.59947 28.9806C6.5239 30.1008 7.80945 30.8641 9.23541 31.1397C8.66182 32.0877 8.35057 33.1711 8.33354 34.279C8.31651 35.3869 8.59431 36.4794 9.13849 37.4446C9.68267 38.4098 10.4737 39.213 11.4304 39.7718C12.3872 40.3307 13.4753 40.6252 14.5833 40.6251C14.5836 42.0064 15.1326 43.3311 16.1095 44.3076C17.0865 45.2842 18.4114 45.8327 19.7927 45.8324C21.174 45.8321 22.4987 45.2831 23.4752 44.3062C24.4518 43.3292 25.0003 42.0043 25 40.623" stroke="white" stroke-width="4.375" stroke-linecap="round" stroke-linejoin="round"/>
<path d="M25 40.625C25 42.0064 25.5487 43.3311 26.5255 44.3079C27.5022 45.2846 28.827 45.8334 30.2083 45.8334C31.5897 45.8334 32.9144 45.2846 33.8912 44.3079C34.8679 43.3311 35.4167 42.0064 35.4167 40.625C36.5247 40.6251 37.6128 40.3306 38.5696 39.7718C39.5263 39.2129 40.3173 38.4097 40.8615 37.4446C41.4057 36.4794 41.6835 35.3869 41.6665 34.279C41.6494 33.1711 41.3382 32.0876 40.7646 31.1396C42.1905 30.8641 43.4761 30.1007 44.4005 28.9806C45.3249 27.8604 45.8306 26.4534 45.8306 25.0011C45.8306 23.5487 45.3249 22.1417 44.4005 21.0216C43.4761 19.9014 42.1905 19.1381 40.7646 18.8625C41.3387 17.9145 41.6504 16.8308 41.6677 15.7226C41.685 14.6144 41.4073 13.5215 40.8631 12.556C40.3188 11.5905 39.5276 10.7871 38.5706 10.2281C37.6135 9.66913 36.525 9.37471 35.4167 9.37502C35.4168 8.69106 35.2822 8.01376 35.0206 7.3818C34.759 6.74985 34.3755 6.17561 33.8919 5.69187C33.4084 5.20814 32.8343 4.82438 32.2024 4.56251C31.5706 4.30064 30.8933 4.16579 30.2094 4.16565C28.828 4.16537 27.5032 4.71384 26.5262 5.6904C25.5493 6.66696 25.0003 7.99161 25 9.37294" stroke="white" stroke-width="4.375" stroke-linecap="round" stroke-linejoin="round"/>
<path d="M21.8478 14.5855V18.7084M14.5833 21.8771H18.8583M31.2978 21.8771H35.5728M31.2978 28.073H35.5728M14.5833 28.073H18.8583M21.8478 31.2917V35.4167M28.1499 31.2917V35.4167M28.1312 14.5834V18.7084M20.9437 31.1855H29.2166C29.7691 31.1855 30.299 30.966 30.6897 30.5753C31.0804 30.1846 31.2999 29.6547 31.2999 29.1021V20.7917C31.2999 20.2392 31.0804 19.7093 30.6897 19.3186C30.299 18.9279 29.7691 18.7084 29.2166 18.7084H20.9437C20.3911 18.7084 19.8612 18.9279 19.4705 19.3186C19.0798 19.7093 18.8603 20.2392 18.8603 20.7917V29.1021C18.8603 29.6547 19.0798 30.1846 19.4705 30.5753C19.8612 30.966 20.3911 31.1855 20.9437 31.1855Z" stroke="white" stroke-width="4.375" stroke-linecap="round" stroke-linejoin="round"/>
</svg>
