<svg width="50" height="50" viewBox="0 0 50 50" fill="none" xmlns="http://www.w3.org/2000/svg">
<path d="M41.6665 8.33325H8.33317C6.0415 8.33325 4.18734 10.2083 4.18734 12.4999L4.1665 37.4999C4.1665 39.7916 6.0415 41.6666 8.33317 41.6666H41.6665C43.9582 41.6666 45.8332 39.7916 45.8332 37.4999V12.4999C45.8332 10.2083 43.9582 8.33325 41.6665 8.33325ZM40.8332 17.1874L26.104 26.3958C25.4373 26.8124 24.5623 26.8124 23.8957 26.3958L9.1665 17.1874C8.9576 17.0701 8.77467 16.9117 8.62877 16.7217C8.48288 16.5317 8.37705 16.314 8.3177 16.0819C8.25835 15.8498 8.24672 15.6081 8.2835 15.3714C8.32027 15.1347 8.4047 14.9079 8.53167 14.7047C8.65864 14.5016 8.82551 14.3263 9.02218 14.1895C9.21885 14.0527 9.44124 13.9572 9.67587 13.9089C9.9105 13.8605 10.1525 13.8603 10.3872 13.9081C10.622 13.956 10.8446 14.051 11.0415 14.1874L24.9998 22.9166L38.9582 14.1874C39.1551 14.051 39.3777 13.956 39.6124 13.9081C39.8472 13.8603 40.0892 13.8605 40.3238 13.9089C40.5584 13.9572 40.7808 14.0527 40.9775 14.1895C41.1742 14.3263 41.341 14.5016 41.468 14.7047C41.595 14.9079 41.6794 15.1347 41.7162 15.3714C41.753 15.6081 41.7413 15.8498 41.682 16.0819C41.6226 16.314 41.5168 16.5317 41.3709 16.7217C41.225 16.9117 41.0421 17.0701 40.8332 17.1874Z" fill="black"/>
</svg>
