<svg width="50" height="50" viewBox="0 0 50 50" fill="none" xmlns="http://www.w3.org/2000/svg">
<path d="M20.8334 6.25L16.6668 10.4167V14.5833H10.4168C8.02093 14.5833 6.5001 16.6667 6.2501 18.75L4.16677 39.5833C3.91677 41.6667 5.29177 43.75 8.33343 43.75H41.6668C44.7084 43.75 46.0834 41.6667 45.8334 39.5833L43.7501 18.75C43.5001 16.6667 41.7918 14.5833 39.5834 14.5833H33.3334V10.4167L29.1668 6.25H20.8334ZM20.8334 10.4167H29.1668V14.5833H20.8334V10.4167ZM22.9168 20.8333H27.0834V27.0833H33.3334V31.25H27.0834V37.5H22.9168V31.25H16.6668V27.0833H22.9168V20.8333Z" fill="white"/>
</svg>
