<svg width="50" height="50" viewBox="0 0 50 50" fill="none" xmlns="http://www.w3.org/2000/svg">
<path fill-rule="evenodd" clip-rule="evenodd" d="M14.069 8.39592C14.069 6.16918 15.2206 4.03365 17.2706 2.45911C19.3205 0.884567 22.1009 0 24.9999 0C27.899 0 30.6793 0.884567 32.7293 2.45911C34.7793 4.03365 35.9309 6.16918 35.9309 8.39592C35.9309 10.6227 34.7793 12.7582 32.7293 14.3327C30.6793 15.9073 27.899 16.7918 24.9999 16.7918C22.1009 16.7918 19.3205 15.9073 17.2706 14.3327C15.2206 12.7582 14.069 10.6227 14.069 8.39592ZM3.49686 22.1485C5.72199 20.5261 8.67303 19.6215 11.7411 19.6215C14.8092 19.6215 17.7603 20.5261 19.9854 22.1485L20.0326 22.1848L24.9999 26.0001L29.972 22.1848L30.0192 22.1485C32.2439 20.5282 35.1929 19.625 38.2587 19.625C41.3246 19.625 44.2736 20.5282 46.4983 22.1485C47.6033 22.9535 48.4836 23.9227 49.0856 24.9972C49.6875 26.0717 49.9987 27.229 50 28.3987C50.0013 29.5685 49.6928 30.7262 49.0933 31.8015C48.4937 32.8768 47.6156 33.8471 46.5125 34.6536L26.6431 49.4869C26.2024 49.8159 25.6121 50 24.9976 50C24.383 50 23.7927 49.8159 23.352 49.4869L3.48741 34.6536C2.38466 33.8474 1.50685 32.8775 0.907333 31.8027C0.307817 30.7278 -0.000881406 29.5706 1.89022e-06 28.4013C0.000885187 27.232 0.311332 26.075 0.912472 25.0008C1.51361 23.9265 2.39289 22.9537 3.49686 22.1485Z" fill="white"/>
</svg>
